<?xml version="1.0" encoding="UTF-8" standalone="no"?>
<!-- Generator: Adobe Illustrator 18.0.0, SVG Export Plug-In . SVG Version: 6.00 Build 0)  -->

<svg
   version="1.1"
   id="Capa_1"
   x="0px"
   y="0px"
   viewBox="0 0 59.39 59.39"
   style="enable-background:new 0 0 59.39 59.39;"
   xml:space="preserve"
   sodipodi:docname="clock.svg"
   inkscape:version="1.2.2 (b0a8486541, 2022-12-01)"
   xmlns:inkscape="http://www.inkscape.org/namespaces/inkscape"
   xmlns:sodipodi="http://sodipodi.sourceforge.net/DTD/sodipodi-0.dtd"
   xmlns="http://www.w3.org/2000/svg"
   xmlns:svg="http://www.w3.org/2000/svg"><defs
   id="defs73">
	
	

		
		
		
		
		
		
	</defs><sodipodi:namedview
   id="namedview71"
   pagecolor="#ffffff"
   bordercolor="#000000"
   borderopacity="0.25"
   inkscape:showpageshadow="2"
   inkscape:pageopacity="0.0"
   inkscape:pagecheckerboard="0"
   inkscape:deskcolor="#d1d1d1"
   showgrid="false"
   inkscape:zoom="7.1813437"
   inkscape:cx="59.598874"
   inkscape:cy="35.856799"
   inkscape:window-width="1920"
   inkscape:window-height="1017"
   inkscape:window-x="0"
   inkscape:window-y="31"
   inkscape:window-maximized="1"
   inkscape:current-layer="Capa_1" />
<circle
   style="fill:#ecf0f1"
   cx="29"
   cy="29.695"
   r="29"
   id="circle2" /><path
   style="fill:#0298b7;fill-opacity:1;stroke-width:0.7;stroke-dasharray:none"
   d="m 29,4.1022284 c 14.111854,0 25.592772,11.4809176 25.592772,25.5927716 C 54.592772,43.806854 43.111854,55.287772 29,55.287772 14.888146,55.287772 3.4072284,43.806854 3.4072284,29.695 3.4072284,15.583146 14.888146,4.1022284 29,4.1022284 M 29,0.695 c -16.016,0 -29,12.984 -29,29 0,16.016 12.984,29 29,29 16.016,0 29,-12.984 29,-29 0,-16.016 -12.984,-29 -29,-29 z"
   id="path4"
   sodipodi:nodetypes="cssscsssss" /><g
   id="g22"
   style="fill:#84c9cf;fill-opacity:1">
			<path
   style="fill:#84c9cf;fill-opacity:1"
   d="m 29,6.573 c -0.552,0 -1,0.447 -1,1 v 1 c 0,0.553 0.448,1 1,1 0.552,0 1,-0.447 1,-1 v -1 c 0,-0.552 -0.448,-1 -1,-1 z"
   id="path6" />
			<path
   style="fill:#84c9cf;fill-opacity:1"
   d="m 29,49.573 c -0.552,0 -1,0.447 -1,1 v 1 c 0,0.553 0.448,1 1,1 0.552,0 1,-0.447 1,-1 v -1 c 0,-0.552 -0.448,-1 -1,-1 z"
   id="path8" />
			<path
   style="fill:#84c9cf;fill-opacity:1"
   d="m 51,28.573 h -1 c -0.552,0 -1,0.447 -1,1 0,0.553 0.448,1 1,1 h 1 c 0.552,0 1,-0.447 1,-1 0,-0.553 -0.448,-1 -1,-1 z"
   id="path10" />
			<path
   style="fill:#84c9cf;fill-opacity:1"
   d="M 8,28.573 H 7 c -0.552,0 -1,0.447 -1,1 0,0.553 0.448,1 1,1 h 1 c 0.552,0 1,-0.447 1,-1 0,-0.553 -0.448,-1 -1,-1 z"
   id="path12" />
			<path
   style="fill:#84c9cf;fill-opacity:1"
   d="m 43.849,13.31 -0.707,0.707 c -0.391,0.391 -0.391,1.023 0,1.414 0.195,0.195 0.451,0.293 0.707,0.293 0.256,0 0.512,-0.098 0.707,-0.293 l 0.707,-0.707 c 0.391,-0.391 0.391,-1.023 0,-1.414 -0.391,-0.391 -1.023,-0.391 -1.414,0 z"
   id="path14" />
			<path
   style="fill:#84c9cf;fill-opacity:1"
   d="m 13.444,43.716 -0.707,0.707 c -0.391,0.391 -0.391,1.023 0,1.414 0.195,0.195 0.451,0.293 0.707,0.293 0.256,0 0.512,-0.098 0.707,-0.293 l 0.707,-0.707 c 0.391,-0.391 0.391,-1.023 0,-1.414 -0.391,-0.391 -1.024,-0.391 -1.414,0 z"
   id="path16" />
			<path
   style="fill:#84c9cf;fill-opacity:1"
   d="m 44.556,43.716 c -0.391,-0.391 -1.023,-0.391 -1.414,0 -0.391,0.391 -0.391,1.023 0,1.414 l 0.707,0.707 c 0.195,0.195 0.451,0.293 0.707,0.293 0.256,0 0.512,-0.098 0.707,-0.293 0.391,-0.391 0.391,-1.023 0,-1.414 z"
   id="path18" />
			<path
   style="fill:#84c9cf;fill-opacity:1"
   d="m 14.151,13.31 c -0.391,-0.391 -1.023,-0.391 -1.414,0 -0.391,0.391 -0.391,1.023 0,1.414 l 0.707,0.707 c 0.195,0.195 0.451,0.293 0.707,0.293 0.256,0 0.512,-0.098 0.707,-0.293 0.391,-0.391 0.391,-1.023 0,-1.414 z"
   id="path20" />
		</g><path
   style="fill:#0a9ac5;fill-opacity:1"
   d="m 26,30.574 h -8 c -0.552,0 -1,-0.447 -1,-1 0,-0.553 0.448,-1 1,-1 h 8 c 0.552,0 1,0.447 1,1 0,0.553 -0.448,1 -1,1 z"
   id="path24" /><path
   style="fill:#0a9ac5;fill-opacity:1"
   d="m 29,27.574 c -0.552,0 -1,-0.447 -1,-1 v -11 c 0,-0.553 0.448,-1 1,-1 0.552,0 1,0.447 1,1 v 11 c 0,0.552 -0.448,1 -1,1 z"
   id="path26" /><path
   style="fill:#0a9ac5;fill-opacity:1"
   d="m 29,33.574 c -2.206,0 -4,-1.794 -4,-4 0,-2.206 1.794,-4 4,-4 2.206,0 4,1.794 4,4 0,2.206 -1.794,4 -4,4 z m 0,-6 c -1.103,0 -2,0.897 -2,2 0,1.103 0.897,2 2,2 1.103,0 2,-0.897 2,-2 0,-1.103 -0.897,-2 -2,-2 z"
   id="path28" /><g
   id="g36">
		<circle
   style="fill:#ff8e42;fill-opacity:1"
   cx="47.389999"
   cy="46.695"
   r="12"
   id="circle32" />
		<path
   style="fill:#ffffff"
   d="m 53.961,40.874 c -0.455,-0.316 -1.077,-0.204 -1.392,0.25 l -5.596,8.04 -3.949,-3.242 c -0.426,-0.351 -1.057,-0.288 -1.407,0.139 -0.351,0.427 -0.289,1.057 0.139,1.407 l 4.786,3.929 c 0.18,0.147 0.404,0.227 0.634,0.227 0.045,0 0.091,-0.003 0.137,-0.009 0.276,-0.039 0.524,-0.19 0.684,-0.419 l 6.214,-8.929 c 0.315,-0.454 0.203,-1.078 -0.25,-1.393 z"
   id="path34" />
	</g>
<g
   id="g40">
</g>
<g
   id="g42">
</g>
<g
   id="g44">
</g>
<g
   id="g46">
</g>
<g
   id="g48">
</g>
<g
   id="g50">
</g>
<g
   id="g52">
</g>
<g
   id="g54">
</g>
<g
   id="g56">
</g>
<g
   id="g58">
</g>
<g
   id="g60">
</g>
<g
   id="g62">
</g>
<g
   id="g64">
</g>
<g
   id="g66">
</g>
<g
   id="g68">
</g>
</svg>
