<?xml version="1.0" encoding="UTF-8" standalone="no"?>
<!-- Created with Inkscape (http://www.inkscape.org/) -->

<svg
   width="21.499666mm"
   height="21.490604mm"
   viewBox="0 0 21.499666 21.490605"
   version="1.1"
   id="svg5"
   xml:space="preserve"
   sodipodi:docname="confianca1.svg"
   inkscape:version="1.2.2 (b0a8486541, 2022-12-01)"
   xmlns:inkscape="http://www.inkscape.org/namespaces/inkscape"
   xmlns:sodipodi="http://sodipodi.sourceforge.net/DTD/sodipodi-0.dtd"
   xmlns="http://www.w3.org/2000/svg"
   xmlns:svg="http://www.w3.org/2000/svg"><sodipodi:namedview
     id="namedview7"
     pagecolor="#ffffff"
     bordercolor="#000000"
     borderopacity="0.25"
     inkscape:showpageshadow="2"
     inkscape:pageopacity="0.0"
     inkscape:pagecheckerboard="0"
     inkscape:deskcolor="#d1d1d1"
     inkscape:document-units="mm"
     showgrid="false"
     inkscape:zoom="4.5876597"
     inkscape:cx="22.015583"
     inkscape:cy="51.115387"
     inkscape:window-width="1920"
     inkscape:window-height="1017"
     inkscape:window-x="0"
     inkscape:window-y="31"
     inkscape:window-maximized="1"
     inkscape:current-layer="layer1" /><defs
     id="defs2" /><g
     inkscape:label="Layer 1"
     inkscape:groupmode="layer"
     id="layer1"
     transform="translate(-76.917991,-90.769372)"><g
       id="g4541"
       transform="matrix(0.67159886,0,0,0.67159886,-745.7428,-232.66632)"><path
         id="path4380"
         d="m 1230.5758,500.61446 c 0.1412,0.52489 0.5798,1.92182 1.6002,3.44746 0.1544,0.23072 0.334,0.48135 0.5421,0.74434 0.7399,0.93497 1.8462,2.0317 3.4263,2.93017 1.1821,0.67225 2.6133,1.22065 4.2364,1.45748 1.4063,0.20521 2.9459,0.17306 4.5171,-0.22078 1.617,-0.40077 3.1129,-1.13145 4.4224,-2.15364 1.2465,-0.97305 2.3063,-2.19733 3.1151,-3.60214 0.7895,-1.37147 1.3291,-2.89723 1.5688,-4.48814 0.239,-1.58632 0.177,-3.21833 -0.2155,-4.8101 -0.4376,-1.78581 -1.2343,-3.36078 -2.261,-4.69294 -1.0708,-1.38948 -2.3865,-2.50904 -3.811,-3.34689 -1.5329,-0.90162 -3.1708,-1.46649 -4.7857,-1.73053 -1.2047,-0.19698 -2.3846,-0.22528 -3.5104,-0.11531 -0.5523,0.054 -1.1117,0.14316 -1.6746,0.27158 -1.8576,0.42498 -3.5817,1.2213 -5.1049,2.342 -1.4831,1.09124 -2.753,2.47419 -3.7407,4.06368 -0.9898,1.59284 -1.6798,3.36666 -2.0237,5.2147 -0.3551,1.90785 -0.3356,3.86143 0.069,5.76137 0.5989,2.98283 2.0159,5.40762 3.5562,7.18868 1.3334,1.54182 2.7266,2.56777 3.7424,3.1997 1.3652,0.84932 2.5388,1.33798 3.0053,1.51461 -0.4839,-0.1201 -1.7254,-0.41895 -3.2032,-1.16113 -1.0898,-0.54727 -2.6253,-1.467 -4.1669,-2.96448 -1.7685,-1.71792 -3.5275,-4.19393 -4.4177,-7.42153 -0.5486,-2.07655 -0.6759,-4.25014 -0.3717,-6.40694 0.2945,-2.08744 0.9887,-4.12157 2.048,-5.97314 1.0569,-1.84737 2.4625,-3.48668 4.1518,-4.79869 1.7372,-1.34922 3.7387,-2.32495 5.9163,-2.84999 0.6625,-0.16005 1.3222,-0.27207 1.9743,-0.34046 1.3295,-0.13943 2.7219,-0.10715 4.1386,0.13012 1.8983,0.31793 3.8129,1.00076 5.5912,2.08257 1.6528,1.0055 3.1705,2.34691 4.3915,4.00618 1.1724,1.59325 2.0586,3.46409 2.5141,5.56034 0.4061,1.87968 0.4131,3.78044 0.074,5.59699 -0.3398,1.82098 -1.0238,3.53912 -1.9804,5.05848 -0.9804,1.55728 -2.2364,2.88951 -3.6866,3.92437 -1.5249,1.0882 -3.2351,1.82781 -5.0456,2.19305 -1.7676,0.35233 -3.463,0.29481 -4.9757,-0.0111 -1.7459,-0.35305 -3.2473,-1.03359 -4.4582,-1.82194 -1.6184,-1.05374 -2.7055,-2.28462 -3.4056,-3.30681 -0.1974,-0.28818 -0.3651,-0.56114 -0.5071,-0.81118 -0.9424,-1.65923 -1.1696,-3.13114 -1.2554,-3.66002 z"
         style="fill:#0099b9;fill-opacity:1;fill-rule:nonzero;stroke:none;stroke-width:0.4001" /><path
         id="path4382"
         d="m 1244.9014,486.47437 c -0.627,-0.14051 -2.1313,-0.3723 -4.0309,-0.21439 -0.2919,0.0243 -0.616,0.0602 -0.967,0.11476 -1.2579,0.19539 -2.843,0.62819 -4.4919,1.57288 -1.2609,0.72231 -2.5184,1.72425 -3.5869,3.04323 -0.9548,1.17856 -1.7369,2.58597 -2.2052,4.19187 -0.4855,1.65894 -0.5943,3.35027 -0.3689,4.99201 0.2268,1.65173 0.7865,3.21552 1.594,4.61183 0.8567,1.48138 1.9674,2.73365 3.21,3.7236 1.4293,1.13878 2.973,1.88619 4.4805,2.32923 0.2153,0.0632 0.4272,0.11968 0.6352,0.16999 1.6668,0.40312 3.271,0.46008 4.7283,0.30245 1.8394,-0.19895 3.5544,-0.75024 5.0611,-1.52754 1.5743,-0.81216 3.0115,-1.917 4.1992,-3.27418 0.9526,-1.08849 1.784,-2.38493 2.3754,-3.88025 0.1098,-0.27768 0.2133,-0.56664 0.3087,-0.86679 0.9131,-2.47817 0.9255,-4.76452 0.7628,-6.31599 0.3369,1.52267 0.5702,3.82719 -0.059,6.51785 -0.089,0.31913 -0.1876,0.62718 -0.2929,0.924 -0.5668,1.5976 -1.3818,3.01259 -2.3383,4.22479 -1.1922,1.51078 -2.6681,2.78819 -4.3348,3.7571 -1.5945,0.92694 -3.4521,1.62172 -5.4923,1.90588 -1.6172,0.22523 -3.4163,0.20034 -5.2956,-0.23908 -0.2341,-0.0547 -0.4725,-0.11659 -0.7145,-0.18625 -1.7032,-0.48987 -3.4419,-1.3356 -5.0385,-2.62527 -1.3869,-1.12029 -2.6135,-2.53568 -3.545,-4.20215 -0.8782,-1.57099 -1.4714,-3.32667 -1.6863,-5.17418 -0.2138,-1.83807 -0.047,-3.71827 0.5366,-5.54325 0.5682,-1.77009 1.4824,-3.2964 2.5717,-4.54956 1.2186,-1.40196 2.6291,-2.43449 4.0207,-3.15027 1.8201,-0.93616 3.5423,-1.30354 4.8829,-1.41327 0.3746,-0.0307 0.7185,-0.0413 1.0265,-0.0396 2.0137,0.0115 3.4712,0.59792 4.0546,0.82052 z"
         style="fill:#76ccdd;fill-opacity:1;fill-rule:nonzero;stroke:none;stroke-width:0.099846" /><path
         sodipodi:nodetypes="ccccscccccc"
         d="m 1240.1078,494.08193 -1.2899,1.03577 0.076,9.44056 0.761,-0.14217 c 4.0971,-0.7643 7.3129,-3.28115 7.5903,-6.55313 l 0.06,-0.70129 -5.9696,-0.021 0.01,1.29711 4.3804,0.0154 c -0.5532,1.98985 -2.6141,3.69637 -5.5445,4.45305 z"
         style="color:#000000;font-style:normal;font-variant:normal;font-weight:normal;font-stretch:normal;font-size:medium;line-height:normal;font-family:sans-serif;font-variant-ligatures:normal;font-variant-position:normal;font-variant-caps:normal;font-variant-numeric:normal;font-variant-alternates:normal;font-variant-east-asian:normal;font-feature-settings:normal;font-variation-settings:normal;text-indent:0;text-align:start;text-decoration:none;text-decoration-line:none;text-decoration-style:solid;text-decoration-color:#000000;letter-spacing:normal;word-spacing:normal;text-transform:none;writing-mode:lr-tb;direction:ltr;text-orientation:mixed;dominant-baseline:auto;baseline-shift:baseline;text-anchor:start;white-space:normal;shape-padding:0;shape-margin:0;inline-size:0;clip-rule:nonzero;display:inline;overflow:visible;visibility:visible;isolation:auto;mix-blend-mode:normal;color-interpolation:sRGB;color-interpolation-filters:linearRGB;solid-color:#000000;solid-opacity:1;vector-effect:none;fill:#0099b9;fill-opacity:1;fill-rule:nonzero;stroke:none;stroke-width:1.29675;stroke-linecap:butt;stroke-linejoin:miter;stroke-miterlimit:4;stroke-dasharray:none;stroke-dashoffset:0;stroke-opacity:1;color-rendering:auto;image-rendering:auto;shape-rendering:auto;text-rendering:auto;enable-background:accumulate;stop-color:#000000"
         id="path4388" /><path
         id="path4390"
         style="color:#000000;font-style:normal;font-variant:normal;font-weight:normal;font-stretch:normal;font-size:medium;line-height:normal;font-family:sans-serif;font-variant-ligatures:normal;font-variant-position:normal;font-variant-caps:normal;font-variant-numeric:normal;font-variant-alternates:normal;font-variant-east-asian:normal;font-feature-settings:normal;font-variation-settings:normal;text-indent:0;text-align:start;text-decoration:none;text-decoration-line:none;text-decoration-style:solid;text-decoration-color:#000000;letter-spacing:normal;word-spacing:normal;text-transform:none;writing-mode:lr-tb;direction:ltr;text-orientation:mixed;dominant-baseline:auto;baseline-shift:baseline;text-anchor:start;white-space:normal;shape-padding:0;shape-margin:0;inline-size:0;clip-rule:nonzero;display:inline;overflow:visible;visibility:visible;isolation:auto;mix-blend-mode:normal;color-interpolation:sRGB;color-interpolation-filters:linearRGB;solid-color:#000000;solid-opacity:1;vector-effect:none;fill:#76cddd;fill-opacity:1;fill-rule:nonzero;stroke:none;stroke-width:1.29675;stroke-linecap:butt;stroke-linejoin:miter;stroke-miterlimit:4;stroke-dasharray:none;stroke-dashoffset:0;stroke-opacity:1;color-rendering:auto;image-rendering:auto;shape-rendering:auto;text-rendering:auto;enable-background:accumulate;stop-color:#000000"
         d="m 1241.369,501.59315 1.2899,-1.03577 -0.076,-9.44056 -0.761,0.14218 c -4.0971,0.76429 -7.3129,3.28115 -7.5903,6.55313 l -0.059,0.70129 4.6739,0.021 -0.012,-1.2971 -3.0809,-0.0154 c 0.5532,-1.98985 2.614,-3.69637 5.5445,-4.45305 z"
         sodipodi:nodetypes="ccccscccccc" /></g></g></svg>
