<?xml version="1.0" encoding="UTF-8" standalone="no"?>
<svg
   width="125.24627"
   height="62.548946"
   viewBox="0 0 125.24627 62.548946"
   fill="none"
   version="1.1"
   id="svg2044"
   sodipodi:docname="logopp.svg"
   inkscape:version="1.2.2 (b0a8486541, 2022-12-01)"
   xmlns:inkscape="http://www.inkscape.org/namespaces/inkscape"
   xmlns:sodipodi="http://sodipodi.sourceforge.net/DTD/sodipodi-0.dtd"
   xmlns="http://www.w3.org/2000/svg"
   xmlns:svg="http://www.w3.org/2000/svg">
  <defs
     id="defs2048" />
  <sodipodi:namedview
     id="namedview2046"
     pagecolor="#ffffff"
     bordercolor="#000000"
     borderopacity="0.25"
     inkscape:showpageshadow="2"
     inkscape:pageopacity="0.0"
     inkscape:pagecheckerboard="0"
     inkscape:deskcolor="#d1d1d1"
     showgrid="false"
     inkscape:zoom="2.6271737"
     inkscape:cx="34.637984"
     inkscape:cy="40.157224"
     inkscape:window-width="1920"
     inkscape:window-height="1017"
     inkscape:window-x="0"
     inkscape:window-y="31"
     inkscape:window-maximized="1"
     inkscape:current-layer="g1610" />
  <g
     id="g1625"
     transform="matrix(3.0099666,0,0,3.0099666,-3763.8176,-1236.4559)"
     inkscape:export-filename="/home/pp/cartao PP5.png"
     inkscape:export-xdpi="300.22809"
     inkscape:export-ydpi="300.22809">
    <g
       transform="matrix(0.87164654,0,0,0.87164654,855.72819,204.34365)"
       id="g1594"
       style="display:inline">
      <path
         id="path1590"
         style="color:#000000;font-style:normal;font-variant:normal;font-weight:normal;font-stretch:normal;font-size:medium;line-height:normal;font-family:sans-serif;font-variant-ligatures:normal;font-variant-position:normal;font-variant-caps:normal;font-variant-numeric:normal;font-variant-alternates:normal;font-variant-east-asian:normal;font-feature-settings:normal;font-variation-settings:normal;text-indent:0;text-align:start;text-decoration:none;text-decoration-line:none;text-decoration-style:solid;text-decoration-color:#000000;letter-spacing:normal;word-spacing:normal;text-transform:none;writing-mode:lr-tb;direction:ltr;text-orientation:mixed;dominant-baseline:auto;baseline-shift:baseline;text-anchor:start;white-space:normal;shape-padding:0;shape-margin:0;inline-size:0;clip-rule:nonzero;display:inline;overflow:visible;visibility:visible;opacity:1;isolation:auto;mix-blend-mode:normal;color-interpolation:sRGB;color-interpolation-filters:linearRGB;solid-color:#000000;solid-opacity:1;vector-effect:none;fill:#0099b9;fill-opacity:1;fill-rule:nonzero;stroke:none;stroke-width:2.3;stroke-linecap:butt;stroke-linejoin:miter;stroke-miterlimit:4;stroke-dasharray:none;stroke-dashoffset:0;stroke-opacity:1;color-rendering:auto;image-rendering:auto;shape-rendering:auto;text-rendering:auto;enable-background:accumulate;stop-color:#000000;stop-opacity:1"
         d="m 463.37662,242.10236 -2.28772,1.83711 0.13539,16.74441 1.3498,-0.25217 c 7.26694,-1.3556 12.97064,-5.81967 13.46274,-11.62307 l 0.10544,-1.24386 -10.58799,-0.0372 0.014,2.30063 7.76925,0.0274 c -0.98116,3.52933 -4.6364,6.55613 -9.83404,7.89823 z"
         sodipodi:nodetypes="ccccscccccc" />
      <path
         sodipodi:nodetypes="ccccscccccc"
         d="m 465.61368,255.42476 2.28772,-1.83711 -0.13539,-16.74441 -1.34979,0.25217 c -7.26694,1.3556 -12.97065,5.81967 -13.46275,11.62307 l -0.10543,1.24386 8.28986,0.0372 -0.0207,-2.30063 -5.46447,-0.0274 c 0.98115,-3.52933 4.6364,-6.55613 9.83403,-7.89823 z"
         style="color:#000000;font-style:normal;font-variant:normal;font-weight:normal;font-stretch:normal;font-size:medium;line-height:normal;font-family:sans-serif;font-variant-ligatures:normal;font-variant-position:normal;font-variant-caps:normal;font-variant-numeric:normal;font-variant-alternates:normal;font-variant-east-asian:normal;font-feature-settings:normal;font-variation-settings:normal;text-indent:0;text-align:start;text-decoration:none;text-decoration-line:none;text-decoration-style:solid;text-decoration-color:#000000;letter-spacing:normal;word-spacing:normal;text-transform:none;writing-mode:lr-tb;direction:ltr;text-orientation:mixed;dominant-baseline:auto;baseline-shift:baseline;text-anchor:start;white-space:normal;shape-padding:0;shape-margin:0;inline-size:0;clip-rule:nonzero;display:inline;overflow:visible;visibility:visible;opacity:1;isolation:auto;mix-blend-mode:normal;color-interpolation:sRGB;color-interpolation-filters:linearRGB;solid-color:#000000;solid-opacity:1;vector-effect:none;fill:#76cddd;fill-opacity:1;fill-rule:nonzero;stroke:none;stroke-width:2.3;stroke-linecap:butt;stroke-linejoin:miter;stroke-miterlimit:4;stroke-dasharray:none;stroke-dashoffset:0;stroke-opacity:1;color-rendering:auto;image-rendering:auto;shape-rendering:auto;text-rendering:auto;enable-background:accumulate;stop-color:#000000;stop-opacity:1"
         id="path1592" />
    </g>
    <g
       transform="translate(236.75663,160.53591)"
       id="g1610">
      <g
         id="g1606"
         transform="matrix(1.3134068,0,0,1.3134068,-176.50149,-21.568979)">
        <g
           aria-label="Design"
           id="text1598"
           style="font-size:5.07995px;line-height:1.25;fill:#ffffff;stroke-width:0.126999">
          <path
             d="m 926.1268,218.27742 v -4.11476 h 0.89407 q 0.4572,0 0.72135,0.14224 0.26924,0.13716 0.381,0.41656 0.11684,0.27939 0.11684,0.69595 v 1.51382 q 0,0.43688 -0.11684,0.7366 -0.11176,0.29971 -0.37084,0.45719 -0.25399,0.1524 -0.68579,0.1524 z m 0.57403,-0.41148 h 0.32512 q 0.31496,0 0.44704,-0.12191 0.13207,-0.12192 0.15747,-0.3556 0.0305,-0.23368 0.0305,-0.56388 v -1.33602 q 0,-0.32004 -0.0406,-0.51816 -0.0406,-0.19812 -0.17779,-0.28955 -0.13716,-0.0914 -0.4318,-0.0914 h -0.30988 z"
             style="font-family:Oswald;-inkscape-font-specification:Oswald;fill:#ffffff"
             id="path2367" />
          <path
             d="m 929.57101,218.31806 q -0.34544,0 -0.5334,-0.13208 -0.18796,-0.13716 -0.26415,-0.39624 -0.0711,-0.26415 -0.0711,-0.64515 v -0.67055 q 0,-0.39116 0.0762,-0.65024 0.0762,-0.25907 0.26415,-0.39115 0.19304,-0.13208 0.52832,-0.13208 0.37083,0 0.54355,0.1524 0.1778,0.1524 0.23368,0.44195 0.0559,0.28448 0.0559,0.6858 v 0.23875 h -1.15823 v 0.58928 q 0,0.1778 0.0305,0.28956 0.0356,0.11175 0.10668,0.16763 0.0762,0.0508 0.19304,0.0508 0.12192,0 0.18288,-0.0559 0.066,-0.061 0.0864,-0.16763 0.0254,-0.11176 0.0254,-0.25908 v -0.1778 h 0.52832 v 0.11176 q 0,0.44195 -0.18796,0.69595 -0.18796,0.254 -0.64007,0.254 z m -0.32512,-1.79322 h 0.62483 v -0.26416 q 0,-0.18288 -0.0203,-0.3048 -0.0203,-0.127 -0.0864,-0.18796 -0.061,-0.066 -0.19812,-0.066 -0.13208,0 -0.2032,0.061 -0.066,0.061 -0.0914,0.20828 -0.0254,0.14224 -0.0254,0.39624 z"
             style="font-family:Oswald;-inkscape-font-specification:Oswald;fill:#ffffff"
             id="path2369" />
          <path
             d="m 931.57759,218.31806 q -0.36068,0 -0.57912,-0.22352 -0.21844,-0.2286 -0.24892,-0.59943 l 0.45212,-0.13716 q 0.0406,0.2794 0.13716,0.42163 0.0965,0.13716 0.28447,0.13716 0.14732,0 0.22352,-0.0813 0.0762,-0.0864 0.0762,-0.22859 0,-0.127 -0.0559,-0.2286 -0.0559,-0.1016 -0.18288,-0.20828 l -0.50291,-0.43179 q -0.1524,-0.13208 -0.25908,-0.29464 -0.1016,-0.16256 -0.1016,-0.42164 0,-0.23368 0.0914,-0.39115 0.0965,-0.16256 0.26416,-0.24384 0.17272,-0.0864 0.40132,-0.0864 0.35051,0 0.53339,0.2286 0.18796,0.22351 0.21336,0.54355 l -0.36576,0.13716 q -0.0203,-0.1524 -0.061,-0.26416 -0.0406,-0.11684 -0.11176,-0.1778 -0.0711,-0.066 -0.18795,-0.066 -0.13208,0 -0.21336,0.0914 -0.0762,0.0864 -0.0762,0.20828 0,0.0762 0.0305,0.1524 0.0356,0.0711 0.11684,0.14224 l 0.51815,0.47751 q 0.10668,0.0965 0.19812,0.20828 0.0965,0.11176 0.15748,0.254 0.061,0.14224 0.061,0.3302 0,0.24891 -0.1016,0.41655 -0.1016,0.16764 -0.28448,0.254 -0.18288,0.0813 -0.42671,0.0813 z"
             style="font-family:Oswald;-inkscape-font-specification:Oswald;fill:#ffffff"
             id="path2371" />
          <path
             d="m 932.83234,218.27742 v -2.93621 h 0.54355 v 2.93621 z m 0,-3.37309 v -0.56895 h 0.54355 v 0.56895 z"
             style="font-family:Oswald;-inkscape-font-specification:Oswald;fill:#ffffff"
             id="path2373" />
          <path
             d="m 934.72208,219.18673 q -0.26416,0 -0.47752,-0.0559 -0.21336,-0.0559 -0.33527,-0.1778 -0.12192,-0.12192 -0.12192,-0.32003 0,-0.14224 0.061,-0.24892 0.061,-0.10668 0.15747,-0.18288 0.0965,-0.0813 0.2032,-0.13208 -0.14224,-0.0406 -0.21336,-0.127 -0.0711,-0.0914 -0.0711,-0.18795 0,-0.16256 0.0864,-0.2794 0.0864,-0.11684 0.23876,-0.254 -0.16764,-0.127 -0.254,-0.32512 -0.0863,-0.19811 -0.0863,-0.54863 0,-0.34544 0.0914,-0.57404 0.0965,-0.23367 0.2794,-0.35051 0.18796,-0.12192 0.4572,-0.12192 0.23875,0 0.38099,0.0813 0.14732,0.0813 0.22352,0.24384 0.0254,-0.0406 0.13716,-0.13716 0.11176,-0.1016 0.25908,-0.16764 l 0.0813,-0.0356 0.13716,0.35052 q -0.066,0.0102 -0.1778,0.0508 -0.10668,0.0356 -0.2032,0.0762 -0.0914,0.0356 -0.11684,0.061 0.0356,0.0864 0.061,0.24892 0.0305,0.16256 0.0305,0.28956 0,0.29972 -0.0762,0.52831 -0.0762,0.2286 -0.254,0.36068 -0.17272,0.127 -0.48259,0.127 -0.066,0 -0.14224,-0.0102 -0.0762,-0.0102 -0.13716,-0.0254 -0.0305,0.0457 -0.066,0.10668 -0.0305,0.061 -0.0305,0.11684 0,0.0559 0.0559,0.0914 0.061,0.0305 0.18796,0.0406 l 0.45719,0.0406 q 0.34544,0.0305 0.51308,0.20827 0.16764,0.1778 0.16764,0.508 0,0.23876 -0.11176,0.40131 -0.11176,0.16764 -0.34036,0.24892 -0.22352,0.0813 -0.56895,0.0813 z m 0.0406,-0.42671 q 0.28955,0 0.42671,-0.0711 0.13716,-0.066 0.13716,-0.21844 0,-0.0914 -0.0356,-0.1524 -0.0305,-0.061 -0.11684,-0.0965 -0.0864,-0.0356 -0.24891,-0.0508 l -0.46228,-0.0406 q -0.0559,0.0559 -0.10668,0.11176 -0.0508,0.0559 -0.0813,0.11684 -0.0305,0.066 -0.0305,0.13716 0,0.13208 0.11176,0.19812 0.11176,0.066 0.4064,0.066 z m -0.0254,-1.76275 q 0.11684,0 0.18288,-0.0406 0.0711,-0.0457 0.10667,-0.127 0.0356,-0.0864 0.0457,-0.20827 0.0152,-0.12192 0.0152,-0.27432 0,-0.1524 -0.0152,-0.27432 -0.0102,-0.127 -0.0457,-0.21336 -0.0305,-0.0914 -0.10159,-0.13715 -0.066,-0.0457 -0.18288,-0.0457 -0.11176,0 -0.18796,0.0457 -0.0711,0.0457 -0.10668,0.13207 -0.0356,0.0813 -0.0508,0.20828 -0.0152,0.12192 -0.0152,0.28448 0,0.13716 0.0102,0.25908 0.0152,0.11684 0.0508,0.20319 0.0406,0.0864 0.11176,0.13716 0.0711,0.0508 0.18288,0.0508 z"
             style="font-family:Oswald;-inkscape-font-specification:Oswald;fill:#ffffff"
             id="path2375" />
          <path
             d="m 936.16986,218.27742 v -2.93621 h 0.54356 v 0.28956 q 0.14731,-0.13716 0.32511,-0.23368 0.1778,-0.0965 0.39116,-0.0965 0.1778,0 0.26924,0.0914 0.0965,0.0914 0.13207,0.2286 0.0406,0.13715 0.0406,0.27939 v 2.37742 h -0.54355 v -2.21994 q 0,-0.15748 -0.0457,-0.24384 -0.0457,-0.0863 -0.18796,-0.0863 -0.0914,0 -0.19304,0.0559 -0.0965,0.0508 -0.18795,0.127 v 2.36726 z"
             style="font-family:Oswald;-inkscape-font-specification:Oswald;fill:#ffffff"
             id="path2377" />
        </g>
        <g
           aria-label="Graphic"
           id="text1602"
           style="font-size:5.07995px;line-height:1.25;fill:#0099b9;stroke-width:0.126999">
          <path
             d="m 925.0664,213.57546 q -0.38608,0 -0.61976,-0.16256 -0.22859,-0.16764 -0.33527,-0.4826 -0.1016,-0.31495 -0.1016,-0.75691 v -1.37666 q 0,-0.45212 0.0914,-0.76708 0.0965,-0.32003 0.33527,-0.48767 0.24384,-0.16764 0.67564,-0.16764 0.38607,0 0.61975,0.13208 0.23876,0.127 0.34544,0.39623 0.10668,0.26416 0.10668,0.67056 v 0.1524 h -0.53848 v -0.127 q 0,-0.26924 -0.0356,-0.43688 -0.0356,-0.17272 -0.14732,-0.254 -0.10668,-0.0864 -0.34035,-0.0864 -0.254,0 -0.37084,0.11684 -0.11176,0.11684 -0.14224,0.32004 -0.0254,0.19812 -0.0254,0.45212 v 1.52398 q 0,0.29464 0.0406,0.49276 0.0457,0.19811 0.16764,0.29463 0.12192,0.0965 0.34544,0.0965 0.22351,0 0.34543,-0.10668 0.12192,-0.10668 0.16764,-0.31495 0.0457,-0.20828 0.0457,-0.51816 v -0.28448 h -0.52323 v -0.40639 h 1.04139 v 2.03706 h -0.36068 l -0.0559,-0.47244 q -0.0813,0.2286 -0.254,0.37592 -0.17272,0.14732 -0.47751,0.14732 z"
             style="font-family:Oswald;-inkscape-font-specification:Oswald;fill:#ffffff"
             id="path2380" />
          <path
             d="m 926.77326,213.52466 v -2.93621 h 0.54355 v 0.41655 q 0.16256,-0.26923 0.32512,-0.36067 0.16256,-0.0914 0.32512,-0.0914 0.0203,0 0.0356,0 0.0203,0 0.0508,0.005 v 0.59943 q -0.061,-0.0254 -0.14224,-0.0406 -0.0762,-0.0203 -0.15748,-0.0203 -0.127,0 -0.23368,0.061 -0.1016,0.0559 -0.2032,0.22352 v 2.14374 z"
             style="font-family:Oswald;-inkscape-font-specification:Oswald;fill:#ffffff"
             id="path2382" />
          <path
             d="m 928.91699,213.5653 q -0.17271,0 -0.30479,-0.0965 -0.13208,-0.1016 -0.20828,-0.254 -0.0762,-0.15748 -0.0762,-0.3302 0,-0.27431 0.0914,-0.46227 0.0914,-0.18796 0.24892,-0.31496 0.16256,-0.13208 0.37083,-0.2286 0.21336,-0.0965 0.44704,-0.18795 v -0.20828 q 0,-0.1778 -0.0203,-0.29464 -0.0203,-0.11684 -0.0864,-0.17272 -0.061,-0.061 -0.18796,-0.061 -0.11176,0 -0.18288,0.0508 -0.066,0.0508 -0.0965,0.14732 -0.0305,0.0914 -0.0305,0.21844 v 0.14732 l -0.53847,-0.0203 q 0.0102,-0.48768 0.22352,-0.71627 0.21336,-0.23368 0.66039,-0.23368 0.43688,0 0.61976,0.23876 0.18287,0.23875 0.18287,0.69087 v 1.34111 q 0,0.13715 0.005,0.26415 0.0102,0.127 0.0203,0.23876 0.0152,0.10668 0.0254,0.2032 h -0.49783 q -0.0152,-0.0813 -0.0406,-0.2032 -0.0203,-0.127 -0.0305,-0.2286 -0.0508,0.17272 -0.19812,0.32512 -0.14224,0.14732 -0.39624,0.14732 z m 0.21336,-0.46736 q 0.0813,0 0.1524,-0.0457 0.0711,-0.0457 0.127,-0.1016 0.0559,-0.061 0.0762,-0.0965 v -0.83311 q -0.127,0.0711 -0.23876,0.14224 -0.11176,0.0711 -0.19812,0.1524 -0.0813,0.0762 -0.13208,0.1778 -0.0457,0.0965 -0.0457,0.22352 0,0.17779 0.066,0.27939 0.066,0.1016 0.19304,0.1016 z"
             style="font-family:Oswald;-inkscape-font-specification:Oswald;fill:#ffffff"
             id="path2384" />
          <path
             d="m 930.55274,214.48985 v -3.9014 h 0.54356 v 0.23367 q 0.0965,-0.11175 0.23367,-0.19303 0.13716,-0.0813 0.32512,-0.0813 0.2286,0 0.36068,0.12192 0.13716,0.11684 0.20319,0.29971 0.066,0.1778 0.0864,0.36576 0.0203,0.18288 0.0203,0.31496 v 0.71119 q 0,0.30988 -0.061,0.58927 -0.061,0.27432 -0.22351,0.44704 -0.15748,0.16764 -0.44704,0.16764 -0.15748,0 -0.2794,-0.0762 -0.12192,-0.0813 -0.21843,-0.18288 v 1.18363 z m 0.93471,-1.35127 q 0.14224,0 0.2032,-0.1016 0.061,-0.10668 0.0762,-0.28447 0.0152,-0.1778 0.0152,-0.39116 v -0.71119 q 0,-0.18288 -0.0203,-0.33528 -0.0203,-0.15748 -0.0864,-0.24892 -0.066,-0.0914 -0.20828,-0.0914 -0.10668,0 -0.2032,0.0457 -0.0965,0.0457 -0.16763,0.10668 v 1.87958 q 0.0762,0.0559 0.17271,0.0965 0.0965,0.0356 0.21844,0.0356 z"
             style="font-family:Oswald;-inkscape-font-specification:Oswald;fill:#ffffff"
             id="path2386" />
          <path
             d="m 932.83363,213.52466 v -4.11476 h 0.54356 v 1.48334 q 0.14732,-0.14223 0.3302,-0.24383 0.18287,-0.1016 0.40639,-0.1016 0.17272,0 0.26416,0.0914 0.0965,0.0914 0.13208,0.22859 0.0406,0.13716 0.0406,0.2794 v 2.37742 h -0.54356 v -2.21994 q 0,-0.15748 -0.0457,-0.24384 -0.0457,-0.0864 -0.18796,-0.0864 -0.0965,0 -0.20319,0.0559 -0.1016,0.0559 -0.19304,0.13716 v 2.3571 z"
             style="font-family:Oswald;-inkscape-font-specification:Oswald;fill:#ffffff"
             id="path2388" />
          <path
             d="m 935.11453,213.52466 v -2.93621 h 0.54355 v 2.93621 z m 0,-3.37309 v -0.56895 h 0.54355 v 0.56895 z"
             style="font-family:Oswald;-inkscape-font-specification:Oswald;fill:#ffffff"
             id="path2390" />
          <path
             d="m 937.04491,213.5653 q -0.36067,0 -0.54863,-0.14224 -0.18288,-0.14732 -0.24892,-0.41148 -0.061,-0.26415 -0.061,-0.61467 v -0.67563 q 0,-0.37084 0.066,-0.62992 0.066,-0.26416 0.24892,-0.40131 0.18796,-0.14224 0.54355,-0.14224 0.32004,0 0.49276,0.10668 0.1778,0.1016 0.24383,0.30987 0.066,0.2032 0.066,0.508 v 0.17272 h -0.49275 v -0.1778 q 0,-0.19304 -0.0254,-0.3048 -0.0254,-0.11176 -0.0914,-0.16256 -0.066,-0.0508 -0.18796,-0.0508 -0.13208,0 -0.2032,0.061 -0.0711,0.061 -0.0965,0.20828 -0.0203,0.14224 -0.0203,0.39116 v 0.92455 q 0,0.37591 0.0711,0.50291 0.0711,0.127 0.254,0.127 0.13716,0 0.19812,-0.061 0.066,-0.066 0.0813,-0.18288 0.0203,-0.11683 0.0203,-0.26415 v -0.23876 h 0.49275 v 0.2032 q 0,0.29463 -0.0711,0.50799 -0.066,0.21336 -0.24383,0.32512 -0.17272,0.11176 -0.48768,0.11176 z"
             style="font-family:Oswald;-inkscape-font-specification:Oswald;fill:#ffffff"
             id="path2392" />
        </g>
        <path
           id="rect1604"
           style="fill:#ffffff;stroke-width:2.60696;stop-color:#000000"
           d="m 932.83435,211.1283 h 0.54253 v 5.21094 h -0.54253 z" />
      </g>
      <path
         style="fill:none;fill-opacity:1;stroke:#ffffff;stroke-width:0.525363;stroke-linecap:round;stroke-linejoin:miter;stroke-miterlimit:4;stroke-dasharray:none;stroke-opacity:1"
         d="M 1035.517,253.38911 V 266.3561"
         id="path1608" />
    </g>
  </g>
</svg>
