<?xml version="1.0" encoding="UTF-8" standalone="no"?>
<!-- Creator: CorelDRAW -->

<svg
   xml:space="preserve"
   width="216.67766"
   height="255.99661"
   style="clip-rule:evenodd;fill-rule:evenodd;image-rendering:optimizeQuality;shape-rendering:geometricPrecision;text-rendering:geometricPrecision"
   viewBox="0 0 216.67766 255.99661"
   version="1.1"
   id="svg8968"
   sodipodi:docname="trust.svg"
   inkscape:version="1.2.2 (b0a8486541, 2022-12-01)"
   xmlns:inkscape="http://www.inkscape.org/namespaces/inkscape"
   xmlns:sodipodi="http://sodipodi.sourceforge.net/DTD/sodipodi-0.dtd"
   xmlns="http://www.w3.org/2000/svg"
   xmlns:svg="http://www.w3.org/2000/svg"><sodipodi:namedview
   id="namedview8970"
   pagecolor="#ffffff"
   bordercolor="#000000"
   borderopacity="0.25"
   inkscape:showpageshadow="2"
   inkscape:pageopacity="0.0"
   inkscape:pagecheckerboard="0"
   inkscape:deskcolor="#d1d1d1"
   showgrid="false"
   inkscape:zoom="1.1780509"
   inkscape:cx="199.48203"
   inkscape:cy="176.13839"
   inkscape:window-width="1920"
   inkscape:window-height="1017"
   inkscape:window-x="0"
   inkscape:window-y="31"
   inkscape:window-maximized="1"
   inkscape:current-layer="Layer_x0020_1" />
 <defs
   id="defs8958">
  <style
   type="text/css"
   id="style8956">
   <![CDATA[
    .fil2 {fill:#F9F9F9}
    .fil0 {fill:#52ABB3}
    .fil1 {fill:#AADDE3}
   ]]>
  </style>
 </defs>
 <g
   id="Layer_x0020_1"
   inkscape:label="Layer 1"
   inkscape:groupmode="layer"
   transform="translate(-39.32228,-0.00521987)">
  <metadata
   id="CorelCorpID_0Corel-Layer" />
  
  
  
 <path
   class="fil0"
   d="m 147.66103,256.00184 c -0.34666,0 -0.6939,-0.052 -1.02934,-0.15473 C 95.519246,240.15968 66.231777,195.56168 51.392792,143.48623 38.683506,98.88713 39.321905,57.794824 39.329555,57.385324 c 0.04193,-2.209258 2.129533,-3.838001 4.282686,-3.343706 53.452443,12.276387 95.352399,-43.690254 101.125389,-52.4629447 1.38012,-2.09705282 4.46812,-2.09882282 5.84825,0 0.0892,0.1358268 9.19549,13.8419357 24.36617,27.3337207 18.84513,16.758083 45.994,32.202816 76.75842,25.129174 2.15315,-0.494885 4.23899,1.135043 4.2821,3.343706 0.008,0.409255 0.64665,41.501656 -12.06264,86.101406 -14.81519,51.99345 -44.1792,96.7479 -95.2394,112.36088 -0.33603,0.10217 -0.68327,0.15414 -1.02933,0.15414 z m 0,-69.59193 c -32.20637,0 -58.407443,-26.20102 -58.407443,-58.40744 0,-32.206362 26.201023,-58.407434 58.407443,-58.407434 32.20576,0 58.40743,26.201022 58.40743,58.407434 0,32.20637 -26.20162,58.40744 -58.40743,58.40744 z m 0,-109.814881 c -28.34652,0 -51.40745,23.061675 -51.40745,51.407441 0,28.34652 23.06108,51.40745 51.40745,51.40745 28.34592,0 51.40744,-23.06108 51.40744,-51.40745 0,-28.345916 -23.06167,-51.407441 -51.40744,-51.407441 z m -16.80124,77.309921 c -0.89587,0 -1.79114,-0.34193 -2.475,-1.0252 L 117.1838,141.67876 c -3.2569,-3.25808 1.69193,-8.20749 4.94942,-4.94883 l 8.72659,8.72539 42.329,-42.32845 c 3.25808,-3.258081 8.20749,1.69134 4.94942,4.94942 l -44.804,44.80345 c -0.68268,0.68327 -1.57855,1.0252 -2.47441,1.0252 z M 46.350383,61.725545 c 0.203149,11.432487 1.704333,44.590855 11.818737,80.003415 16.407883,57.44294 46.5113,93.4714 89.49191,107.10689 43.02175,-13.64884 73.14192,-49.7316 89.5364,-107.26689 10.08484,-35.39121 11.57484,-68.436928 11.77444,-79.843915 C 208.79481,68.578387 171.10345,40.944117 147.66098,9.5345998 124.20485,40.949017 86.54304,68.584037 46.350583,61.726045 Z"
   id="path8961"
   style="fill:#0298b7;fill-opacity:1;stroke-width:0.499999" /><path
   class="fil1"
   d="m 147.66103,179.40992 c 28.34592,0 51.40744,-23.06108 51.40744,-51.40745 0,-28.345916 -23.06167,-51.407441 -51.40744,-51.407441 -28.34652,0 -51.40745,23.061675 -51.40745,51.407441 0,28.34652 23.06108,51.40745 51.40745,51.40745 z m -14.32679,-26.53057 c -0.68268,0.68327 -1.57855,1.0252 -2.47441,1.0252 -0.89587,0 -1.79114,-0.34193 -2.47501,-1.0252 l -11.20099,-11.20099 c -3.25689,-3.25808 1.69194,-8.20749 4.94942,-4.94883 l 8.72659,8.72539 42.32901,-42.32845 c 3.25807,-3.258081 8.20749,1.69134 4.94942,4.94942 l -44.804,44.80345 z"
   id="path8963"
   style="stroke-width:0.499999" /><path
   class="fil2"
   d="m 147.66103,69.595036 c 32.20576,0 58.40743,26.201022 58.40743,58.407434 0,32.20637 -26.20162,58.40744 -58.40743,58.40744 -32.20637,0 -58.407443,-26.20102 -58.407443,-58.40744 0,-32.206362 26.201023,-58.407434 58.407443,-58.407434 z m 0,179.240314 c 43.02175,-13.64884 73.14192,-49.7316 89.5364,-107.26689 10.08484,-35.39121 11.57484,-68.436928 11.77444,-79.843915 C 208.79481,68.577887 171.10345,40.943617 147.66098,9.5340998 124.20485,40.948517 86.54304,68.583537 46.350583,61.725545 c 0.203149,11.432487 1.704333,44.590855 11.818737,80.003415 16.407883,57.44294 46.5113,93.4714 89.49191,107.10689 z"
   id="path8965"
   style="stroke:#0298b7;stroke-width:7;stroke-dasharray:none;stroke-opacity:1" /><path
   d="m 133.33421,152.87975 c -0.68268,0.68327 -1.57855,1.0252 -2.47442,1.0252 -0.89587,0 -1.79114,-0.34193 -2.475,-1.0252 L 117.1838,141.67876 c -3.2569,-3.25808 1.69193,-8.20749 4.94942,-4.94883 l 8.72659,8.72539 42.329,-42.32845 c 3.25808,-3.258081 8.20749,1.69134 4.94942,4.94942 l -44.804,44.80345 z"
   id="path9831"
   sodipodi:nodetypes="sscccccccs"
   style="fill:#ff8e42;fill-opacity:1;stroke:#ff8e42;stroke-width:2.7;stroke-dasharray:none;stroke-opacity:1" /></g>
</svg>
